# xmcd
#
# Track frame offsets:
#	150
#	15397
#	43475
#
# Disc length: 1031 seconds
#
# Revision: 0
# Processed by: cddbd v1.5.1PL0 Copyright (c) Steve Scherf et al.
# Submitted via: audiograbber 1.83.01
#
DISCID=1e040503
DTITLE=DJ Boozywoozy - Party Affair (M-CD)
DYEAR=2002
DGENRE=Pop
TTITLE0=Party Affair (Radio)
TTITLE1=Party Affair (Rocco Remix)
TTITLE2=Party Affair (Extended)
EXTD=
EXTT0=
EXTT1=
EXTT2=
PLAYORDER=
